<mxfile host="app.diagrams.net" modified="2022-10-15T00:05:06.056Z" agent="5.0 (Windows)" etag="wUOq1RFrpmQ7JFuVG7HM" version="20.4.1" type="github">
  <diagram id="3RCn6N35fP39XIZh213B" name="Page-1">
    <mxGraphModel dx="1824" dy="536" grid="1" gridSize="10" guides="1" tooltips="1" connect="1" arrows="1" fold="1" page="1" pageScale="1" pageWidth="850" pageHeight="1100" math="0" shadow="0">
      <root>
        <mxCell id="0" />
        <mxCell id="1" parent="0" />
        <mxCell id="O7x9XWf4z1wM_RoRaR3g-1" value="1 Match providers and clients" style="rounded=0;whiteSpace=wrap;html=1;" parent="1" vertex="1">
          <mxGeometry x="330" y="170" width="120" height="40" as="geometry" />
        </mxCell>
        <mxCell id="O7x9XWf4z1wM_RoRaR3g-2" value="1.1 Create user network" style="rounded=0;whiteSpace=wrap;html=1;" parent="1" vertex="1">
          <mxGeometry x="-120" y="270" width="80" height="40" as="geometry" />
        </mxCell>
        <mxCell id="O7x9XWf4z1wM_RoRaR3g-3" value="1.2 Query User Data" style="rounded=0;whiteSpace=wrap;html=1;" parent="1" vertex="1">
          <mxGeometry x="50" y="270" width="120" height="40" as="geometry" />
        </mxCell>
        <mxCell id="O7x9XWf4z1wM_RoRaR3g-4" value="1.3 Manage Contract" style="rounded=0;whiteSpace=wrap;html=1;" parent="1" vertex="1">
          <mxGeometry x="290" y="270" width="120" height="40" as="geometry" />
        </mxCell>
        <mxCell id="O7x9XWf4z1wM_RoRaR3g-5" value="1.4 Transfer Money" style="rounded=0;whiteSpace=wrap;html=1;" parent="1" vertex="1">
          <mxGeometry x="510" y="270" width="120" height="40" as="geometry" />
        </mxCell>
        <mxCell id="O7x9XWf4z1wM_RoRaR3g-6" value="1.5 Project Progress" style="rounded=0;whiteSpace=wrap;html=1;" parent="1" vertex="1">
          <mxGeometry x="740" y="270" width="100" height="40" as="geometry" />
        </mxCell>
        <mxCell id="O7x9XWf4z1wM_RoRaR3g-8" value="" style="endArrow=classic;html=1;rounded=0;exitX=0.5;exitY=1;exitDx=0;exitDy=0;entryX=0.5;entryY=0;entryDx=0;entryDy=0;" parent="1" source="O7x9XWf4z1wM_RoRaR3g-1" target="O7x9XWf4z1wM_RoRaR3g-2" edge="1">
          <mxGeometry width="50" height="50" relative="1" as="geometry">
            <mxPoint x="360" y="330" as="sourcePoint" />
            <mxPoint x="410" y="280" as="targetPoint" />
          </mxGeometry>
        </mxCell>
        <mxCell id="O7x9XWf4z1wM_RoRaR3g-9" value="" style="endArrow=classic;html=1;rounded=0;entryX=0.5;entryY=0;entryDx=0;entryDy=0;exitX=0.5;exitY=1;exitDx=0;exitDy=0;" parent="1" source="O7x9XWf4z1wM_RoRaR3g-1" target="O7x9XWf4z1wM_RoRaR3g-3" edge="1">
          <mxGeometry width="50" height="50" relative="1" as="geometry">
            <mxPoint x="300" y="200" as="sourcePoint" />
            <mxPoint x="410" y="280" as="targetPoint" />
          </mxGeometry>
        </mxCell>
        <mxCell id="O7x9XWf4z1wM_RoRaR3g-10" value="" style="endArrow=classic;html=1;rounded=0;exitX=0.5;exitY=1;exitDx=0;exitDy=0;entryX=0.5;entryY=0;entryDx=0;entryDy=0;" parent="1" source="O7x9XWf4z1wM_RoRaR3g-1" target="O7x9XWf4z1wM_RoRaR3g-4" edge="1">
          <mxGeometry width="50" height="50" relative="1" as="geometry">
            <mxPoint x="320" y="290" as="sourcePoint" />
            <mxPoint x="370" y="240" as="targetPoint" />
          </mxGeometry>
        </mxCell>
        <mxCell id="O7x9XWf4z1wM_RoRaR3g-11" value="" style="endArrow=classic;html=1;rounded=0;exitX=0.5;exitY=1;exitDx=0;exitDy=0;entryX=0.5;entryY=0;entryDx=0;entryDy=0;" parent="1" source="O7x9XWf4z1wM_RoRaR3g-1" target="O7x9XWf4z1wM_RoRaR3g-5" edge="1">
          <mxGeometry width="50" height="50" relative="1" as="geometry">
            <mxPoint x="320" y="290" as="sourcePoint" />
            <mxPoint x="370" y="240" as="targetPoint" />
          </mxGeometry>
        </mxCell>
        <mxCell id="O7x9XWf4z1wM_RoRaR3g-12" value="" style="endArrow=classic;html=1;rounded=0;exitX=0.5;exitY=1;exitDx=0;exitDy=0;entryX=0.5;entryY=0;entryDx=0;entryDy=0;" parent="1" source="O7x9XWf4z1wM_RoRaR3g-1" target="O7x9XWf4z1wM_RoRaR3g-6" edge="1">
          <mxGeometry width="50" height="50" relative="1" as="geometry">
            <mxPoint x="470" y="300" as="sourcePoint" />
            <mxPoint x="520" y="250" as="targetPoint" />
          </mxGeometry>
        </mxCell>
        <mxCell id="O7x9XWf4z1wM_RoRaR3g-13" value="&lt;div&gt;1.6 Chat Room&lt;/div&gt;" style="rounded=0;whiteSpace=wrap;html=1;" parent="1" vertex="1">
          <mxGeometry x="960" y="270" width="90" height="40" as="geometry" />
        </mxCell>
        <mxCell id="O7x9XWf4z1wM_RoRaR3g-14" value="" style="endArrow=classic;html=1;rounded=0;exitX=0.5;exitY=1;exitDx=0;exitDy=0;entryX=0.5;entryY=0;entryDx=0;entryDy=0;" parent="1" source="O7x9XWf4z1wM_RoRaR3g-1" target="O7x9XWf4z1wM_RoRaR3g-13" edge="1">
          <mxGeometry width="50" height="50" relative="1" as="geometry">
            <mxPoint x="440" y="250" as="sourcePoint" />
            <mxPoint x="490" y="200" as="targetPoint" />
          </mxGeometry>
        </mxCell>
        <mxCell id="O7x9XWf4z1wM_RoRaR3g-15" value="1.1.1 Sign Up" style="rounded=0;whiteSpace=wrap;html=1;" parent="1" vertex="1">
          <mxGeometry x="-260" y="330" width="60" height="40" as="geometry" />
        </mxCell>
        <mxCell id="O7x9XWf4z1wM_RoRaR3g-16" value="1.1.2 Login" style="rounded=0;whiteSpace=wrap;html=1;" parent="1" vertex="1">
          <mxGeometry x="-190" y="330" width="50" height="40" as="geometry" />
        </mxCell>
        <mxCell id="O7x9XWf4z1wM_RoRaR3g-17" value="1.1.3 Mange User Profile" style="rounded=0;whiteSpace=wrap;html=1;" parent="1" vertex="1">
          <mxGeometry x="-130" y="330" width="70" height="40" as="geometry" />
        </mxCell>
        <mxCell id="O7x9XWf4z1wM_RoRaR3g-18" value="1.1.3.1 Manage Provider Profile" style="rounded=0;whiteSpace=wrap;html=1;" parent="1" vertex="1">
          <mxGeometry x="-240" y="410" width="60" height="60" as="geometry" />
        </mxCell>
        <mxCell id="O7x9XWf4z1wM_RoRaR3g-20" value="1.1.3.2 Manage Client Profile" style="rounded=0;whiteSpace=wrap;html=1;" parent="1" vertex="1">
          <mxGeometry x="-170" y="415" width="70" height="50" as="geometry" />
        </mxCell>
        <mxCell id="O7x9XWf4z1wM_RoRaR3g-21" value="1.1.3.3 Provide Premium Profile Option" style="rounded=0;whiteSpace=wrap;html=1;" parent="1" vertex="1">
          <mxGeometry x="-90" y="415" width="90" height="50" as="geometry" />
        </mxCell>
        <mxCell id="O7x9XWf4z1wM_RoRaR3g-23" value="" style="endArrow=classic;html=1;rounded=0;exitX=0.5;exitY=1;exitDx=0;exitDy=0;entryX=0.5;entryY=0;entryDx=0;entryDy=0;" parent="1" source="O7x9XWf4z1wM_RoRaR3g-17" target="O7x9XWf4z1wM_RoRaR3g-18" edge="1">
          <mxGeometry width="50" height="50" relative="1" as="geometry">
            <mxPoint x="180" y="370" as="sourcePoint" />
            <mxPoint x="230" y="320" as="targetPoint" />
          </mxGeometry>
        </mxCell>
        <mxCell id="O7x9XWf4z1wM_RoRaR3g-24" value="" style="endArrow=classic;html=1;rounded=0;exitX=0.5;exitY=1;exitDx=0;exitDy=0;entryX=0.5;entryY=0;entryDx=0;entryDy=0;" parent="1" source="O7x9XWf4z1wM_RoRaR3g-17" target="O7x9XWf4z1wM_RoRaR3g-20" edge="1">
          <mxGeometry width="50" height="50" relative="1" as="geometry">
            <mxPoint x="180" y="370" as="sourcePoint" />
            <mxPoint x="230" y="320" as="targetPoint" />
          </mxGeometry>
        </mxCell>
        <mxCell id="O7x9XWf4z1wM_RoRaR3g-25" value="" style="endArrow=classic;html=1;rounded=0;exitX=0.5;exitY=1;exitDx=0;exitDy=0;entryX=0.5;entryY=0;entryDx=0;entryDy=0;" parent="1" source="O7x9XWf4z1wM_RoRaR3g-17" target="O7x9XWf4z1wM_RoRaR3g-21" edge="1">
          <mxGeometry width="50" height="50" relative="1" as="geometry">
            <mxPoint x="180" y="370" as="sourcePoint" />
            <mxPoint x="230" y="320" as="targetPoint" />
          </mxGeometry>
        </mxCell>
        <mxCell id="O7x9XWf4z1wM_RoRaR3g-26" value="1.2.1 Sort Query Results" style="rounded=0;whiteSpace=wrap;html=1;" parent="1" vertex="1">
          <mxGeometry x="10" y="340" width="70" height="40" as="geometry" />
        </mxCell>
        <mxCell id="O7x9XWf4z1wM_RoRaR3g-27" value="1.2.1.1 Implemented sorting method" style="rounded=0;whiteSpace=wrap;html=1;" parent="1" vertex="1">
          <mxGeometry x="10" y="405" width="70" height="60" as="geometry" />
        </mxCell>
        <mxCell id="O7x9XWf4z1wM_RoRaR3g-28" value="1.2.2 Manage Query Response" style="rounded=0;whiteSpace=wrap;html=1;" parent="1" vertex="1">
          <mxGeometry x="90" y="340" width="80" height="40" as="geometry" />
        </mxCell>
        <mxCell id="O7x9XWf4z1wM_RoRaR3g-31" value="" style="endArrow=classic;html=1;rounded=0;exitX=0.5;exitY=1;exitDx=0;exitDy=0;entryX=0.5;entryY=0;entryDx=0;entryDy=0;" parent="1" source="O7x9XWf4z1wM_RoRaR3g-3" target="O7x9XWf4z1wM_RoRaR3g-26" edge="1">
          <mxGeometry width="50" height="50" relative="1" as="geometry">
            <mxPoint x="220" y="380" as="sourcePoint" />
            <mxPoint x="270" y="330" as="targetPoint" />
          </mxGeometry>
        </mxCell>
        <mxCell id="O7x9XWf4z1wM_RoRaR3g-32" value="" style="endArrow=classic;html=1;rounded=0;exitX=0.5;exitY=1;exitDx=0;exitDy=0;entryX=0.5;entryY=0;entryDx=0;entryDy=0;" parent="1" source="O7x9XWf4z1wM_RoRaR3g-26" target="O7x9XWf4z1wM_RoRaR3g-27" edge="1">
          <mxGeometry width="50" height="50" relative="1" as="geometry">
            <mxPoint x="220" y="380" as="sourcePoint" />
            <mxPoint x="270" y="330" as="targetPoint" />
          </mxGeometry>
        </mxCell>
        <mxCell id="O7x9XWf4z1wM_RoRaR3g-33" value="" style="endArrow=classic;html=1;rounded=0;exitX=0.5;exitY=1;exitDx=0;exitDy=0;entryX=0.5;entryY=0;entryDx=0;entryDy=0;" parent="1" source="O7x9XWf4z1wM_RoRaR3g-3" target="O7x9XWf4z1wM_RoRaR3g-28" edge="1">
          <mxGeometry width="50" height="50" relative="1" as="geometry">
            <mxPoint x="220" y="380" as="sourcePoint" />
            <mxPoint x="270" y="330" as="targetPoint" />
          </mxGeometry>
        </mxCell>
        <mxCell id="O7x9XWf4z1wM_RoRaR3g-34" value="1.2.2.1 Limit Only Guests&#39; Results" style="rounded=0;whiteSpace=wrap;html=1;" parent="1" vertex="1">
          <mxGeometry x="90" y="415" width="80" height="40" as="geometry" />
        </mxCell>
        <mxCell id="O7x9XWf4z1wM_RoRaR3g-36" value="" style="endArrow=classic;html=1;rounded=0;exitX=0.5;exitY=1;exitDx=0;exitDy=0;entryX=0.5;entryY=0;entryDx=0;entryDy=0;" parent="1" source="O7x9XWf4z1wM_RoRaR3g-28" target="O7x9XWf4z1wM_RoRaR3g-34" edge="1">
          <mxGeometry width="50" height="50" relative="1" as="geometry">
            <mxPoint x="240" y="380" as="sourcePoint" />
            <mxPoint x="290" y="330" as="targetPoint" />
          </mxGeometry>
        </mxCell>
        <mxCell id="O7x9XWf4z1wM_RoRaR3g-37" value="1.2.3 Implement Dynamic Queries" style="rounded=0;whiteSpace=wrap;html=1;" parent="1" vertex="1">
          <mxGeometry x="180" y="340" width="70" height="60" as="geometry" />
        </mxCell>
        <mxCell id="O7x9XWf4z1wM_RoRaR3g-38" value="" style="endArrow=classic;html=1;rounded=0;exitX=0.5;exitY=1;exitDx=0;exitDy=0;entryX=0.5;entryY=0;entryDx=0;entryDy=0;" parent="1" source="O7x9XWf4z1wM_RoRaR3g-3" target="O7x9XWf4z1wM_RoRaR3g-37" edge="1">
          <mxGeometry width="50" height="50" relative="1" as="geometry">
            <mxPoint x="290" y="380" as="sourcePoint" />
            <mxPoint x="340" y="330" as="targetPoint" />
          </mxGeometry>
        </mxCell>
        <mxCell id="O7x9XWf4z1wM_RoRaR3g-39" value="" style="endArrow=classic;html=1;rounded=0;exitX=0.5;exitY=1;exitDx=0;exitDy=0;entryX=0.5;entryY=0;entryDx=0;entryDy=0;" parent="1" source="O7x9XWf4z1wM_RoRaR3g-2" target="O7x9XWf4z1wM_RoRaR3g-15" edge="1">
          <mxGeometry width="50" height="50" relative="1" as="geometry">
            <mxPoint x="90" y="370" as="sourcePoint" />
            <mxPoint x="140" y="320" as="targetPoint" />
          </mxGeometry>
        </mxCell>
        <mxCell id="O7x9XWf4z1wM_RoRaR3g-40" value="" style="endArrow=classic;html=1;rounded=0;exitX=0.5;exitY=1;exitDx=0;exitDy=0;entryX=0.5;entryY=0;entryDx=0;entryDy=0;" parent="1" source="O7x9XWf4z1wM_RoRaR3g-2" target="O7x9XWf4z1wM_RoRaR3g-16" edge="1">
          <mxGeometry width="50" height="50" relative="1" as="geometry">
            <mxPoint x="90" y="370" as="sourcePoint" />
            <mxPoint x="140" y="320" as="targetPoint" />
          </mxGeometry>
        </mxCell>
        <mxCell id="O7x9XWf4z1wM_RoRaR3g-41" value="" style="endArrow=classic;html=1;rounded=0;exitX=0.5;exitY=1;exitDx=0;exitDy=0;entryX=0.5;entryY=0;entryDx=0;entryDy=0;" parent="1" source="O7x9XWf4z1wM_RoRaR3g-2" target="O7x9XWf4z1wM_RoRaR3g-17" edge="1">
          <mxGeometry width="50" height="50" relative="1" as="geometry">
            <mxPoint x="90" y="370" as="sourcePoint" />
            <mxPoint x="140" y="320" as="targetPoint" />
          </mxGeometry>
        </mxCell>
        <mxCell id="O7x9XWf4z1wM_RoRaR3g-42" value="1.3.1 Create Project Proposal" style="rounded=0;whiteSpace=wrap;html=1;" parent="1" vertex="1">
          <mxGeometry x="270" y="340" width="70" height="40" as="geometry" />
        </mxCell>
        <mxCell id="O7x9XWf4z1wM_RoRaR3g-43" value="1.3.1.1 User can accept or reject proposal" style="rounded=0;whiteSpace=wrap;html=1;" parent="1" vertex="1">
          <mxGeometry x="250" y="415" width="70" height="60" as="geometry" />
        </mxCell>
        <mxCell id="O7x9XWf4z1wM_RoRaR3g-44" value="" style="endArrow=classic;html=1;rounded=0;exitX=0.5;exitY=1;exitDx=0;exitDy=0;entryX=0.5;entryY=0;entryDx=0;entryDy=0;" parent="1" source="O7x9XWf4z1wM_RoRaR3g-4" target="O7x9XWf4z1wM_RoRaR3g-42" edge="1">
          <mxGeometry width="50" height="50" relative="1" as="geometry">
            <mxPoint x="350" y="370" as="sourcePoint" />
            <mxPoint x="400" y="320" as="targetPoint" />
          </mxGeometry>
        </mxCell>
        <mxCell id="O7x9XWf4z1wM_RoRaR3g-45" value="" style="endArrow=classic;html=1;rounded=0;exitX=0.5;exitY=1;exitDx=0;exitDy=0;entryX=0.5;entryY=0;entryDx=0;entryDy=0;" parent="1" source="O7x9XWf4z1wM_RoRaR3g-42" target="O7x9XWf4z1wM_RoRaR3g-43" edge="1">
          <mxGeometry width="50" height="50" relative="1" as="geometry">
            <mxPoint x="350" y="370" as="sourcePoint" />
            <mxPoint x="400" y="320" as="targetPoint" />
          </mxGeometry>
        </mxCell>
        <mxCell id="O7x9XWf4z1wM_RoRaR3g-46" value="1.3.2 Client requests a provider" style="rounded=0;whiteSpace=wrap;html=1;" parent="1" vertex="1">
          <mxGeometry x="350" y="340" width="70" height="40" as="geometry" />
        </mxCell>
        <mxCell id="O7x9XWf4z1wM_RoRaR3g-47" value="" style="endArrow=classic;html=1;rounded=0;exitX=0.5;exitY=1;exitDx=0;exitDy=0;entryX=0.5;entryY=0;entryDx=0;entryDy=0;" parent="1" source="O7x9XWf4z1wM_RoRaR3g-4" target="O7x9XWf4z1wM_RoRaR3g-46" edge="1">
          <mxGeometry width="50" height="50" relative="1" as="geometry">
            <mxPoint x="340" y="320" as="sourcePoint" />
            <mxPoint x="315" y="350" as="targetPoint" />
          </mxGeometry>
        </mxCell>
        <mxCell id="O7x9XWf4z1wM_RoRaR3g-48" value="1.3.2.1 Client can accept default or offer new provider rate" style="rounded=0;whiteSpace=wrap;html=1;" parent="1" vertex="1">
          <mxGeometry x="330" y="410" width="75" height="75" as="geometry" />
        </mxCell>
        <mxCell id="O7x9XWf4z1wM_RoRaR3g-49" value="" style="endArrow=classic;html=1;rounded=0;exitX=0.5;exitY=1;exitDx=0;exitDy=0;entryX=0.5;entryY=0;entryDx=0;entryDy=0;" parent="1" source="O7x9XWf4z1wM_RoRaR3g-46" target="O7x9XWf4z1wM_RoRaR3g-48" edge="1">
          <mxGeometry width="50" height="50" relative="1" as="geometry">
            <mxPoint x="340" y="320" as="sourcePoint" />
            <mxPoint x="395" y="350" as="targetPoint" />
          </mxGeometry>
        </mxCell>
        <mxCell id="O7x9XWf4z1wM_RoRaR3g-50" value="1.3.2.2 Provider can accept or reject" style="rounded=0;whiteSpace=wrap;html=1;" parent="1" vertex="1">
          <mxGeometry x="410" y="410" width="60" height="60" as="geometry" />
        </mxCell>
        <mxCell id="O7x9XWf4z1wM_RoRaR3g-51" value="" style="endArrow=classic;html=1;rounded=0;exitX=0.5;exitY=1;exitDx=0;exitDy=0;entryX=0.5;entryY=0;entryDx=0;entryDy=0;" parent="1" source="O7x9XWf4z1wM_RoRaR3g-46" target="O7x9XWf4z1wM_RoRaR3g-50" edge="1">
          <mxGeometry width="50" height="50" relative="1" as="geometry">
            <mxPoint x="350" y="370" as="sourcePoint" />
            <mxPoint x="400" y="320" as="targetPoint" />
          </mxGeometry>
        </mxCell>
        <mxCell id="O7x9XWf4z1wM_RoRaR3g-52" value="1.3.3 Draft a contract" style="rounded=0;whiteSpace=wrap;html=1;" parent="1" vertex="1">
          <mxGeometry x="430" y="340" width="70" height="40" as="geometry" />
        </mxCell>
        <mxCell id="O7x9XWf4z1wM_RoRaR3g-54" value="1.3.1.1 User can accept or reject contract" style="rounded=0;whiteSpace=wrap;html=1;" parent="1" vertex="1">
          <mxGeometry x="480" y="410" width="70" height="60" as="geometry" />
        </mxCell>
        <mxCell id="O7x9XWf4z1wM_RoRaR3g-55" value="" style="endArrow=classic;html=1;rounded=0;exitX=0.5;exitY=1;exitDx=0;exitDy=0;entryX=0.5;entryY=0;entryDx=0;entryDy=0;" parent="1" source="O7x9XWf4z1wM_RoRaR3g-52" target="O7x9XWf4z1wM_RoRaR3g-54" edge="1">
          <mxGeometry width="50" height="50" relative="1" as="geometry">
            <mxPoint x="315" y="389.9999999999999" as="sourcePoint" />
            <mxPoint x="295" y="425.0000000000001" as="targetPoint" />
          </mxGeometry>
        </mxCell>
        <mxCell id="O7x9XWf4z1wM_RoRaR3g-56" value="" style="endArrow=classic;html=1;rounded=0;exitX=0.5;exitY=1;exitDx=0;exitDy=0;entryX=0.5;entryY=0;entryDx=0;entryDy=0;" parent="1" source="O7x9XWf4z1wM_RoRaR3g-4" target="O7x9XWf4z1wM_RoRaR3g-52" edge="1">
          <mxGeometry width="50" height="50" relative="1" as="geometry">
            <mxPoint x="325" y="399.9999999999999" as="sourcePoint" />
            <mxPoint x="305" y="435.0000000000001" as="targetPoint" />
          </mxGeometry>
        </mxCell>
        <mxCell id="O7x9XWf4z1wM_RoRaR3g-57" value="1.4.1 Process payment" style="rounded=0;whiteSpace=wrap;html=1;" parent="1" vertex="1">
          <mxGeometry x="510" y="340" width="70" height="40" as="geometry" />
        </mxCell>
        <mxCell id="O7x9XWf4z1wM_RoRaR3g-58" value="1.4.2 Bill service fee" style="rounded=0;whiteSpace=wrap;html=1;" parent="1" vertex="1">
          <mxGeometry x="590" y="340" width="70" height="40" as="geometry" />
        </mxCell>
        <mxCell id="O7x9XWf4z1wM_RoRaR3g-60" value="" style="endArrow=classic;html=1;rounded=0;exitX=0.5;exitY=1;exitDx=0;exitDy=0;entryX=0.5;entryY=0;entryDx=0;entryDy=0;" parent="1" source="O7x9XWf4z1wM_RoRaR3g-5" target="O7x9XWf4z1wM_RoRaR3g-57" edge="1">
          <mxGeometry width="50" height="50" relative="1" as="geometry">
            <mxPoint x="600" y="330" as="sourcePoint" />
            <mxPoint x="650" y="280" as="targetPoint" />
          </mxGeometry>
        </mxCell>
        <mxCell id="O7x9XWf4z1wM_RoRaR3g-61" value="" style="endArrow=classic;html=1;rounded=0;exitX=0.5;exitY=1;exitDx=0;exitDy=0;entryX=0.5;entryY=0;entryDx=0;entryDy=0;" parent="1" source="O7x9XWf4z1wM_RoRaR3g-5" target="O7x9XWf4z1wM_RoRaR3g-58" edge="1">
          <mxGeometry width="50" height="50" relative="1" as="geometry">
            <mxPoint x="580" y="320" as="sourcePoint" />
            <mxPoint x="555" y="350" as="targetPoint" />
          </mxGeometry>
        </mxCell>
        <mxCell id="O7x9XWf4z1wM_RoRaR3g-62" value="1.5.1 Have a visual indicator" style="rounded=0;whiteSpace=wrap;html=1;" parent="1" vertex="1">
          <mxGeometry x="670" y="340" width="70" height="40" as="geometry" />
        </mxCell>
        <mxCell id="O7x9XWf4z1wM_RoRaR3g-63" value="1.5.2 Manage change requests" style="rounded=0;whiteSpace=wrap;html=1;" parent="1" vertex="1">
          <mxGeometry x="750" y="340" width="80" height="40" as="geometry" />
        </mxCell>
        <mxCell id="O7x9XWf4z1wM_RoRaR3g-64" value="1.5.3 Provide feedback system" style="rounded=0;whiteSpace=wrap;html=1;" parent="1" vertex="1">
          <mxGeometry x="840" y="340" width="80" height="40" as="geometry" />
        </mxCell>
        <mxCell id="O7x9XWf4z1wM_RoRaR3g-65" value="1.6.1 Make a chat room for client and provider" style="rounded=0;whiteSpace=wrap;html=1;" parent="1" vertex="1">
          <mxGeometry x="955" y="340" width="100" height="40" as="geometry" />
        </mxCell>
        <mxCell id="O7x9XWf4z1wM_RoRaR3g-66" value="1.5.2.1 Provider can accept or reject change" style="rounded=0;whiteSpace=wrap;html=1;" parent="1" vertex="1">
          <mxGeometry x="750" y="400" width="80" height="60" as="geometry" />
        </mxCell>
        <mxCell id="O7x9XWf4z1wM_RoRaR3g-67" value="1.5.3.1 Provider and Client can rate each other" style="rounded=0;whiteSpace=wrap;html=1;" parent="1" vertex="1">
          <mxGeometry x="840" y="400" width="80" height="60" as="geometry" />
        </mxCell>
        <mxCell id="O7x9XWf4z1wM_RoRaR3g-69" value="" style="endArrow=classic;html=1;rounded=0;exitX=0.5;exitY=1;exitDx=0;exitDy=0;entryX=0.5;entryY=0;entryDx=0;entryDy=0;" parent="1" source="O7x9XWf4z1wM_RoRaR3g-6" target="O7x9XWf4z1wM_RoRaR3g-62" edge="1">
          <mxGeometry width="50" height="50" relative="1" as="geometry">
            <mxPoint x="640" y="330" as="sourcePoint" />
            <mxPoint x="690" y="280" as="targetPoint" />
          </mxGeometry>
        </mxCell>
        <mxCell id="O7x9XWf4z1wM_RoRaR3g-70" value="" style="endArrow=classic;html=1;rounded=0;exitX=0.5;exitY=1;exitDx=0;exitDy=0;entryX=0.5;entryY=0;entryDx=0;entryDy=0;" parent="1" source="O7x9XWf4z1wM_RoRaR3g-6" target="O7x9XWf4z1wM_RoRaR3g-63" edge="1">
          <mxGeometry width="50" height="50" relative="1" as="geometry">
            <mxPoint x="640" y="330" as="sourcePoint" />
            <mxPoint x="690" y="280" as="targetPoint" />
          </mxGeometry>
        </mxCell>
        <mxCell id="O7x9XWf4z1wM_RoRaR3g-71" value="" style="endArrow=classic;html=1;rounded=0;exitX=0.5;exitY=1;exitDx=0;exitDy=0;entryX=0.5;entryY=0;entryDx=0;entryDy=0;" parent="1" source="O7x9XWf4z1wM_RoRaR3g-6" target="O7x9XWf4z1wM_RoRaR3g-64" edge="1">
          <mxGeometry width="50" height="50" relative="1" as="geometry">
            <mxPoint x="640" y="330" as="sourcePoint" />
            <mxPoint x="690" y="280" as="targetPoint" />
          </mxGeometry>
        </mxCell>
        <mxCell id="O7x9XWf4z1wM_RoRaR3g-72" value="" style="endArrow=classic;html=1;rounded=0;exitX=0.5;exitY=1;exitDx=0;exitDy=0;entryX=0.5;entryY=0;entryDx=0;entryDy=0;" parent="1" source="O7x9XWf4z1wM_RoRaR3g-63" target="O7x9XWf4z1wM_RoRaR3g-66" edge="1">
          <mxGeometry width="50" height="50" relative="1" as="geometry">
            <mxPoint x="640" y="330" as="sourcePoint" />
            <mxPoint x="690" y="280" as="targetPoint" />
          </mxGeometry>
        </mxCell>
        <mxCell id="O7x9XWf4z1wM_RoRaR3g-73" value="" style="endArrow=classic;html=1;rounded=0;exitX=0.5;exitY=1;exitDx=0;exitDy=0;entryX=0.5;entryY=0;entryDx=0;entryDy=0;" parent="1" source="O7x9XWf4z1wM_RoRaR3g-64" target="O7x9XWf4z1wM_RoRaR3g-67" edge="1">
          <mxGeometry width="50" height="50" relative="1" as="geometry">
            <mxPoint x="640" y="330" as="sourcePoint" />
            <mxPoint x="690" y="280" as="targetPoint" />
          </mxGeometry>
        </mxCell>
        <mxCell id="O7x9XWf4z1wM_RoRaR3g-74" value="" style="endArrow=classic;html=1;rounded=0;exitX=0.5;exitY=1;exitDx=0;exitDy=0;entryX=0.5;entryY=0;entryDx=0;entryDy=0;" parent="1" source="O7x9XWf4z1wM_RoRaR3g-13" target="O7x9XWf4z1wM_RoRaR3g-65" edge="1">
          <mxGeometry width="50" height="50" relative="1" as="geometry">
            <mxPoint x="640" y="330" as="sourcePoint" />
            <mxPoint x="690" y="280" as="targetPoint" />
          </mxGeometry>
        </mxCell>
        <mxCell id="wMXl9cHmHwt6OEToU1eQ-2" value="1.1.4 Validate User" style="rounded=0;whiteSpace=wrap;html=1;" vertex="1" parent="1">
          <mxGeometry x="-50" y="330" width="50" height="40" as="geometry" />
        </mxCell>
        <mxCell id="wMXl9cHmHwt6OEToU1eQ-3" value="" style="endArrow=classic;html=1;rounded=0;exitX=0.5;exitY=1;exitDx=0;exitDy=0;entryX=0.5;entryY=0;entryDx=0;entryDy=0;" edge="1" parent="1" source="O7x9XWf4z1wM_RoRaR3g-2" target="wMXl9cHmHwt6OEToU1eQ-2">
          <mxGeometry width="50" height="50" relative="1" as="geometry">
            <mxPoint x="-85" y="380" as="sourcePoint" />
            <mxPoint x="-35" y="425" as="targetPoint" />
          </mxGeometry>
        </mxCell>
      </root>
    </mxGraphModel>
  </diagram>
</mxfile>
